<mxfile host="app.diagrams.net" modified="2023-11-16T12:03:42.013Z" agent="Mozilla/5.0 (Windows NT 10.0; Win64; x64) AppleWebKit/537.36 (KHTML, like Gecko) Chrome/119.0.0.0 Safari/537.36" etag="7Wa5qtxamzAh32YqaihE" version="22.1.2" type="device">
  <diagram name="Page-1" id="OYve0QTZCoOjCTM6lZyx">
    <mxGraphModel dx="1434" dy="746" grid="1" gridSize="10" guides="1" tooltips="1" connect="1" arrows="1" fold="1" page="1" pageScale="1" pageWidth="827" pageHeight="1169" math="0" shadow="0">
      <root>
        <mxCell id="0" />
        <mxCell id="1" parent="0" />
        <mxCell id="Kq6bJm6ph463FgCNfhzP-1" value="" style="endArrow=none;html=1;rounded=0;" edge="1" parent="1">
          <mxGeometry width="50" height="50" relative="1" as="geometry">
            <mxPoint x="120" y="640" as="sourcePoint" />
            <mxPoint x="120" y="80" as="targetPoint" />
          </mxGeometry>
        </mxCell>
        <mxCell id="Kq6bJm6ph463FgCNfhzP-2" value="" style="endArrow=none;html=1;rounded=0;" edge="1" parent="1">
          <mxGeometry width="50" height="50" relative="1" as="geometry">
            <mxPoint x="400" y="640" as="sourcePoint" />
            <mxPoint x="400" y="80" as="targetPoint" />
          </mxGeometry>
        </mxCell>
        <mxCell id="Kq6bJm6ph463FgCNfhzP-3" value="&lt;font style=&quot;font-size: 24px;&quot;&gt;User Equipment&lt;/font&gt;" style="text;html=1;strokeColor=none;fillColor=none;align=center;verticalAlign=middle;whiteSpace=wrap;rounded=0;" vertex="1" parent="1">
          <mxGeometry x="30" y="30" width="200" height="50" as="geometry" />
        </mxCell>
        <mxCell id="Kq6bJm6ph463FgCNfhzP-4" value="&lt;font style=&quot;font-size: 24px;&quot;&gt;Core Network&lt;/font&gt;" style="text;html=1;strokeColor=none;fillColor=none;align=center;verticalAlign=middle;whiteSpace=wrap;rounded=0;" vertex="1" parent="1">
          <mxGeometry x="300" y="30" width="200" height="50" as="geometry" />
        </mxCell>
        <mxCell id="Kq6bJm6ph463FgCNfhzP-5" value="" style="endArrow=classic;html=1;rounded=0;" edge="1" parent="1">
          <mxGeometry width="50" height="50" relative="1" as="geometry">
            <mxPoint x="120" y="120" as="sourcePoint" />
            <mxPoint x="400" y="160" as="targetPoint" />
          </mxGeometry>
        </mxCell>
        <mxCell id="Kq6bJm6ph463FgCNfhzP-6" value="" style="endArrow=classic;html=1;rounded=0;" edge="1" parent="1">
          <mxGeometry width="50" height="50" relative="1" as="geometry">
            <mxPoint x="400" y="200" as="sourcePoint" />
            <mxPoint x="120" y="240" as="targetPoint" />
          </mxGeometry>
        </mxCell>
        <mxCell id="Kq6bJm6ph463FgCNfhzP-7" value="" style="endArrow=classic;html=1;rounded=0;" edge="1" parent="1">
          <mxGeometry width="50" height="50" relative="1" as="geometry">
            <mxPoint x="400" y="360" as="sourcePoint" />
            <mxPoint x="120" y="400" as="targetPoint" />
          </mxGeometry>
        </mxCell>
        <mxCell id="Kq6bJm6ph463FgCNfhzP-8" value="" style="endArrow=classic;html=1;rounded=0;" edge="1" parent="1">
          <mxGeometry width="50" height="50" relative="1" as="geometry">
            <mxPoint x="120" y="280" as="sourcePoint" />
            <mxPoint x="400" y="320" as="targetPoint" />
          </mxGeometry>
        </mxCell>
        <mxCell id="Kq6bJm6ph463FgCNfhzP-9" value="ATTACH request" style="text;html=1;strokeColor=none;fillColor=none;align=center;verticalAlign=middle;whiteSpace=wrap;rounded=0;rotation=10;" vertex="1" parent="1">
          <mxGeometry x="120.00000000000001" y="100" width="150" height="30" as="geometry" />
        </mxCell>
        <mxCell id="Kq6bJm6ph463FgCNfhzP-10" value="Authentication request" style="text;html=1;strokeColor=none;fillColor=none;align=center;verticalAlign=middle;whiteSpace=wrap;rounded=0;rotation=-10;" vertex="1" parent="1">
          <mxGeometry x="199.85" y="190" width="200.15" height="30" as="geometry" />
        </mxCell>
        <mxCell id="Kq6bJm6ph463FgCNfhzP-11" value="Authentication reply" style="text;html=1;strokeColor=none;fillColor=none;align=center;verticalAlign=middle;whiteSpace=wrap;rounded=0;rotation=10;" vertex="1" parent="1">
          <mxGeometry x="120" y="260" width="150" height="30" as="geometry" />
        </mxCell>
        <mxCell id="Kq6bJm6ph463FgCNfhzP-12" value="Identity request" style="text;html=1;strokeColor=none;fillColor=none;align=center;verticalAlign=middle;whiteSpace=wrap;rounded=0;rotation=-10;" vertex="1" parent="1">
          <mxGeometry x="250" y="340" width="200.15" height="30" as="geometry" />
        </mxCell>
        <mxCell id="Kq6bJm6ph463FgCNfhzP-13" value="" style="endArrow=classic;html=1;rounded=0;" edge="1" parent="1">
          <mxGeometry width="50" height="50" relative="1" as="geometry">
            <mxPoint x="120" y="440" as="sourcePoint" />
            <mxPoint x="400" y="480" as="targetPoint" />
          </mxGeometry>
        </mxCell>
        <mxCell id="Kq6bJm6ph463FgCNfhzP-14" value="" style="endArrow=classic;html=1;rounded=0;" edge="1" parent="1">
          <mxGeometry width="50" height="50" relative="1" as="geometry">
            <mxPoint x="400" y="520" as="sourcePoint" />
            <mxPoint x="120" y="560" as="targetPoint" />
          </mxGeometry>
        </mxCell>
        <mxCell id="Kq6bJm6ph463FgCNfhzP-15" value="Identity reply" style="text;html=1;strokeColor=none;fillColor=none;align=center;verticalAlign=middle;whiteSpace=wrap;rounded=0;rotation=10;" vertex="1" parent="1">
          <mxGeometry x="60" y="420" width="210" height="30" as="geometry" />
        </mxCell>
        <mxCell id="Kq6bJm6ph463FgCNfhzP-16" value="ATTACH complete" style="text;html=1;strokeColor=none;fillColor=none;align=center;verticalAlign=middle;whiteSpace=wrap;rounded=0;rotation=-10;" vertex="1" parent="1">
          <mxGeometry x="213" y="510" width="200.15" height="30" as="geometry" />
        </mxCell>
        <mxCell id="Kq6bJm6ph463FgCNfhzP-17" value="&lt;h1&gt;Auth challenge&lt;/h1&gt;&lt;p&gt;The Core Network sends a challenge that can only be solved by the user.&lt;br&gt;&lt;span style=&quot;background-color: initial;&quot;&gt;If the user solves the challenge, it is authenticated.&amp;nbsp;&lt;/span&gt;&lt;/p&gt;" style="text;html=1;strokeColor=none;fillColor=none;spacing=5;spacingTop=-20;whiteSpace=wrap;overflow=hidden;rounded=0;" vertex="1" parent="1">
          <mxGeometry x="450.15" y="200" width="190" height="120" as="geometry" />
        </mxCell>
        <mxCell id="Kq6bJm6ph463FgCNfhzP-18" value="" style="shape=curlyBracket;whiteSpace=wrap;html=1;rounded=1;flipH=1;labelPosition=right;verticalLabelPosition=middle;align=left;verticalAlign=middle;" vertex="1" parent="1">
          <mxGeometry x="413.15" y="190" width="20" height="140" as="geometry" />
        </mxCell>
        <mxCell id="Kq6bJm6ph463FgCNfhzP-19" value="" style="shape=curlyBracket;whiteSpace=wrap;html=1;rounded=1;flipH=1;labelPosition=right;verticalLabelPosition=middle;align=left;verticalAlign=middle;" vertex="1" parent="1">
          <mxGeometry x="414" y="350" width="20" height="140" as="geometry" />
        </mxCell>
        <mxCell id="Kq6bJm6ph463FgCNfhzP-20" value="&lt;h1&gt;Identity request&lt;/h1&gt;&lt;p&gt;This only exists since the 3G. It identifies the user&#39;s IMSI.&lt;/p&gt;&lt;p&gt;Before the 3G, someone who stole your IMSI could impersonnate you.&lt;/p&gt;" style="text;html=1;strokeColor=none;fillColor=none;spacing=5;spacingTop=-20;whiteSpace=wrap;overflow=hidden;rounded=0;" vertex="1" parent="1">
          <mxGeometry x="450.15" y="360" width="190" height="140" as="geometry" />
        </mxCell>
      </root>
    </mxGraphModel>
  </diagram>
</mxfile>
